PathFileType	3	(X/Y/Z)	D:\VICON_DB\Goncalves\Pilot01\09-03-2026\walking_03.trc
DataRate	CameraRate	NumFrames	NumMarkers	Units	OrigDataRate	OrigDataStartFrame	OrigNumFrames
200.0	200.0	13	34	mm	200.0	565	1504	
Frame#	Time	LASI			RASI			LPSI			RPSI			LTHI			LTHAP			LTHAD			LKNE			LKNM			LTIB			LTIAP			LTIAD			LANK			LMED			LHEE			LTOE			LFMH			LSMH			LVMH			RTHI			RTHAP			RTHAD			RKNE			RKNM			RTIB			RTIAP			RTIAD			RANK			RMED			RHEE			RTOE			RFMH			RSMH			RVMH			
		X1	Y1	Z1	X2	Y2	Z2	X3	Y3	Z3	X4	Y4	Z4	X5	Y5	Z5	X6	Y6	Z6	X7	Y7	Z7	X8	Y8	Z8	X9	Y9	Z9	X10	Y10	Z10	X11	Y11	Z11	X12	Y12	Z12	X13	Y13	Z13	X14	Y14	Z14	X15	Y15	Z15	X16	Y16	Z16	X17	Y17	Z17	X18	Y18	Z18	X19	Y19	Z19	X20	Y20	Z20	X21	Y21	Z21	X22	Y22	Z22	X23	Y23	Z23	X24	Y24	Z24	X25	Y25	Z25	X26	Y26	Z26	X27	Y27	Z27	X28	Y28	Z28	X29	Y29	Z29	X30	Y30	Z30	X31	Y31	Z31	X32	Y32	Z32	X33	Y33	Z33	X34	Y34	Z34	
565	2.82	54.423027	879.48944	1585.4979	314.83289	863.1142	1604.3906	140.18375	921.92548	1793.9199	203.2065	912.49127	1797.4562	42.857155	700.79102	1527.4803	17.971497	759.54987	1566.8534	19.617777	626.04755	1536.4487	55.837608	469.38583	1522.5262				53.805119	269.02115	1533.3652	111.41689	355.86615	1490.476	91.525772	249.59824	1498.4795	139.52684	74.358475	1545.3586				137.79054	59.615517	1607.6136	130.28233	70.182831	1480.2679	165.75597	45.637089	1429.1276				83.958984	23.264196	1430.4979	347.75607	580.17273	1646.9629	336.54849	709.44818	1613.8472	323.44205	620.27734	1585.554	331.06805	444.89798	1684.4579				328.58411	310.78116	1822.1343	291.21475	310.61609	1746.4703	282.45825	263.03702	1813.8656	271.08487	199.37921	2022.7051				224.69206	231.40434	2031.7786	257.42822	103.11272	1976.5752	225.55521	66.077484	1974.7751				290.52121	61.028149	2014.3588
566	2.825	54.013332	880.30334	1579.3201	314.52844	863.85071	1597.8296	139.98672	922.92468	1787.6639	202.9863	913.29102	1791.1838	42.094116	700.71838	1522.3557	17.380367	759.90436	1561.4183	19.177441	625.97815	1532.1638	55.49966	469.18546	1519.4885				53.793106	268.8024	1531.7581	111.3139	355.42874	1488.2585	91.478981	249.12674	1496.9548	132.46141	72.700256	1546.9017				137.67979	59.750973	1607.5266	130.30867	70.139244	1480.2004	165.84453	45.523438	1429.0859				83.948845	23.314734	1430.4658	347.72552	581.14856	1636.8749	336.19479	710.68121	1605.827	322.78705	621.98779	1576.2462	331.26678	445.44687	1672.1925				328.50653	311.90613	1809.6646	291.19391	311.50235	1733.9343	282.33414	264.36414	1801.6913	270.46039	202.52975	2010.9456				223.88896	234.2433	2019.7826	257.92264	109.31453	1965.0537	226.63588	68.403046	1963.4463				291.58401	64.27256	2003.3274
567	2.83	53.65316	881.16302	1573.1946	314.26987	864.63727	1591.3086	139.82329	923.96136	1781.458	202.79131	914.13721	1784.9576	41.442154	700.67676	1517.3652	16.87192	760.28064	1556.0757	18.777273	625.94598	1527.9766	55.163795	469.00076	1516.5938				53.768246	268.59561	1530.2747	111.17757	355.02557	1486.1412	91.39502	248.66742	1495.5293	125.54443	71.136108	1548.4808				137.56561	59.88007	1607.45	130.31061	70.104515	1480.1462	165.91736	45.432606	1429.0631				83.942169	23.370825	1430.4484	347.68604	582.26349	1626.724	335.81131	712.01453	1597.8129	322.00284	623.8327	1566.9398	331.44321	446.13965	1659.8684				328.36563	313.01797	1797.0325	291.07175	312.46481	1721.2546	282.10709	265.6965	1789.3103	269.81262	205.33978	1998.9078				223.06285	236.66837	2007.6929	258.41669	114.94341	1952.8734	227.7368	70.665596	1951.2892				292.71234	67.329079	1991.3832
568	2.835	53.337376	882.07092	1567.1196	314.04636	865.47681	1584.819	139.69611	925.03094	1775.2965	202.62558	915.02863	1778.77	40.893517	700.66327	1512.5002	16.440619	760.67358	1550.8187	18.414377	625.94574	1523.8826	54.829597	468.83005	1513.8333				53.729931	268.40045	1528.9069	111.01052	354.66171	1484.111	91.273575	248.22041	1494.197	119.05157	69.733704	1550.0422				137.4514	60.004059	1607.3812	130.29224	70.075813	1480.1019	165.97545	45.357643	1429.0543				83.937706	23.428251	1430.4429	347.64255	583.52063	1616.5148	335.39804	713.45093	1589.8013	321.09796	625.81299	1557.6385	331.60065	446.98068	1647.5005				328.17001	314.1145	1784.2539	290.86328	313.49854	1708.4419	281.79364	267.021	1776.7312	269.16519	207.77988	1986.5985				222.23506	238.66345	1995.498	258.89999	119.9535	1940.0878	228.83479	72.828957	1938.3431				293.88107	70.156281	1978.5709
569	2.84	53.060097	883.02631	1561.092	313.84683	866.37207	1578.3542	139.60576	926.12817	1769.1736	202.49162	915.96338	1772.6141	40.437347	700.67297	1507.7498	16.078489	761.07697	1545.6392	18.086143	625.97095	1519.8778	54.497875	468.67084	1511.1996				53.678982	268.21622	1527.646	110.81755	354.34085	1482.1575	91.116547	247.78581	1492.9523	113.17271	68.534637	1551.5428				137.34052	60.123795	1607.3179	130.25812	70.051285	1480.0643	166.02002	45.292671	1429.0563				83.934624	23.48427	1430.4465	347.59982	584.92188	1606.2554	334.95657	714.99243	1581.7904	320.08514	627.92804	1548.3481	331.74124	447.97266	1635.1056				327.92838	315.19107	1771.3446	290.58521	314.59814	1695.5068	281.41235	268.3244	1763.9626	268.54202	209.82674	1974.0233				221.42636	240.21631	1983.1838	259.36478	124.32484	1926.7494	229.91234	74.860046	1924.6567				295.06525	72.718193	1964.9485
570	2.845	52.814766	884.02515	1555.1094	313.66089	867.32465	1571.912	139.55096	927.24701	1763.0835	202.39035	916.93848	1766.4833	40.060505	700.6994	1503.1001	15.775474	761.48505	1540.5277	17.790403	626.01483	1515.9586	54.170536	468.52039	1508.684				53.617722	268.04147	1526.4828	110.60415	354.06485	1480.2734	90.928185	247.36336	1491.7888	108.01476	67.554443	1552.9487				137.23639	60.239735	1607.2587	130.21294	70.029732	1480.0308	166.05255	45.232571	1429.0653				83.932503	23.537388	1430.4572	347.56232	586.46735	1595.9559	334.49011	716.64026	1573.7802	318.98022	630.17572	1539.0756	331.86652	449.11685	1622.7012				327.65054	316.24207	1758.3206	290.25497	315.7583	1682.4607	280.98288	269.59448	1751.0143	267.96466	211.46291	1961.1888				220.65543	241.3185	1970.7354	259.80521	128.05788	1912.91	230.95718	76.730156	1910.2836				296.24084	74.985077	1950.5812
571	2.85	52.594383	885.06042	1549.1685	313.47906	868.33514	1565.4924	139.52893	928.38123	1757.0201	202.3212	917.95013	1760.3716	39.748459	700.73474	1498.5361	15.520246	761.89185	1535.4745	17.525467	626.07037	1512.1223	53.850399	468.37549	1506.2786				53.549839	267.87439	1525.4078	110.3755	353.83325	1478.4552	90.714951	246.95255	1490.7008	103.61974	66.787163	1554.2312				137.14233	60.351974	1607.2019	130.16153	70.010498	1480	166.07463	45.172878	1429.0791				83.931351	23.587095	1430.4734	347.53357	588.15466	1585.6287	334.00308	718.39392	1565.7722	317.80164	632.552	1529.8289	331.97742	450.41318	1610.3053				327.3476	317.26245	1745.1974	289.88965	316.97421	1669.3154	280.52487	270.82074	1737.8973	267.4494	212.67554	1948.1022				219.93799	241.96501	1958.1399	260.21609	131.16859	1898.6163	231.96042	78.415955	1895.2793				297.38556	76.933899	1935.5344
572	2.855	52.39164	886.12274	1543.2662	313.29312	869.40344	1559.097	139.53572	929.52441	1750.9783	202.28252	918.99438	1754.2733	39.486065	700.77094	1494.0422	15.301483	762.29218	1530.4698	17.290264	626.1311	1508.366	53.540852	468.23309	1503.975				53.47982	267.71341	1524.4102	110.13676	353.64291	1476.7019	90.485252	246.55281	1489.6815	99.981369	66.212257	1555.3669				137.06152	60.460251	1607.1471	130.10855	69.993385	1479.9709	166.08788	45.109772	1429.095				83.931442	23.633596	1430.494	347.51651	589.98016	1575.2878	333.50082	720.2514	1557.7693	316.5694	635.05109	1520.6167	332.0748	451.86014	1597.9366				327.03101	318.24768	1731.9916	289.50491	318.24173	1656.0847	280.05716	271.9949	1724.6246	267.00613	213.45508	1934.7705				219.28693	242.15419	1945.3865	260.5928	133.68419	1883.9098	232.91414	79.900314	1879.6981				298.48038	78.548805	1919.8713
573	2.86	52.199276	887.20093	1537.3997	313.09641	870.52844	1552.7266	139.5668	930.67059	1744.9528	202.27177	920.06622	1748.184	39.258358	700.79993	1489.6036	15.109252	762.68036	1525.5035	17.084555	626.19073	1504.6875	53.24559	468.09055	1501.7657				53.41235	267.55731	1523.4794	109.89396	353.48761	1475.0162	90.248756	246.16342	1488.7239	97.059608	65.802956	1556.3427				136.99687	60.564026	1607.0929	130.05843	69.978493	1479.9427	166.09367	45.039997	1429.1113				83.933296	23.677616	1430.5187	347.51291	591.93799	1564.9497	332.98935	722.20892	1549.776	315.30429	637.66473	1511.4481	332.15875	453.45474	1585.6138				326.71173	319.19424	1718.7189	289.11502	319.55725	1642.7826	279.59677	273.11102	1711.2096	266.63937	213.79509	1921.2003				218.71222	241.88747	1932.4667	260.93195	135.64023	1868.8263	233.80995	81.172867	1863.5905				299.50998	79.821457	1903.6472
574	2.865	52.010433	888.28235	1531.5656	312.88376	871.7077	1546.3807	139.61748	931.81409	1738.9397	202.28596	921.16101	1742.0996	39.051277	700.81403	1485.2057	14.935543	763.05066	1520.5662	16.908964	626.24274	1501.0852	52.968292	467.94543	1499.6426				53.351971	267.40579	1522.6042	109.65426	353.35843	1473.4034	90.015953	245.78369	1487.8207	94.79258	65.53186	1557.1544				136.95084	60.662518	1607.0391	130.01508	69.966225	1479.9156	166.09332	44.960785	1429.1268				83.937561	23.720205	1430.5464	347.52362	594.02051	1554.6324	332.47473	724.26099	1541.7979	314.02707	640.38312	1502.3329	332.22876	455.19196	1573.3549				326.39935	320.09949	1705.3947	288.7319	320.91751	1629.4241	279.15805	274.16531	1697.6664	266.35025	213.69243	1907.3969				218.22145	241.16882	1919.373	261.23196	137.0779	1853.396	234.63884	82.229889	1847.0007				300.46317	80.750977	1886.9099
575	2.87	51.819016	889.35345	1525.761	312.65186	872.9361	1540.0598	139.6832	932.94965	1732.9349	202.32198	922.27325	1736.0176	38.852386	700.80566	1480.8363	14.773808	763.39795	1515.6494	16.764833	626.28143	1497.5566	52.712429	467.79605	1497.5978				53.302933	267.25864	1521.7742	109.42568	353.24438	1471.8699	89.797485	245.41304	1486.9648	93.105682	65.373199	1557.8079				136.92546	60.754818	1606.9855	129.98204	69.95726	1479.8895	166.08789	44.869797	1429.1404				83.944954	23.762508	1430.5771	347.54898	596.21838	1544.3545	331.96344	726.40039	1533.8418	312.75797	643.1944	1493.2808	332.28333	457.06491	1561.1775				326.10162	320.96121	1692.0336	288.3653	322.31949	1616.0245	278.75229	275.15573	1684.0087	266.13705	213.14699	1893.3638				217.81978	240.00461	1906.0997	261.49332	138.04129	1837.644	235.39244	83.073563	1829.969				301.33319	81.343231	1869.6996
576	2.875	51.619926	890.40057	1519.9835	312.39877	874.2066	1533.7632	139.76015	934.07263	1726.9357	202.37683	923.39764	1729.9358	38.651463	700.76825	1476.4852	14.618493	763.71735	1510.7479	16.653648	626.30127	1494.0994	52.481094	467.64124	1495.6234				53.268974	267.11618	1520.9785	109.21669	353.13419	1470.4197	89.603462	245.05115	1486.149	91.918472	65.303589	1558.3141				136.92216	60.83992	1606.9315	129.96225	69.952209	1479.8649	166.0784	44.765121	1429.1508				83.956161	23.805607	1430.6107	347.58844	598.52063	1534.1351	331.46173	728.61804	1525.9155	311.51587	646.08472	1484.3011	332.31992	459.06412	1549.0981				325.82428	321.77719	1678.6478	288.02206	323.75995	1602.5979	278.38742	276.08142	1670.2495	265.99707	212.16234	1879.1029				217.5099	238.403	1892.6409	261.71811	138.57484	1821.5916	236.06496	83.710556	1812.5305				302.11728	81.609619	1852.0502
577	2.88	51.409248	891.41071	1514.2299	312.12408	875.51086	1527.4906	139.84529	935.17853	1720.9397	202.44804	924.52838	1723.8533	38.440979	700.6958	1472.1451	14.464999	764.00531	1505.8577	16.576544	626.29749	1490.7096	52.27702	467.48032	1493.7118				53.25325	266.97845	1520.2079	109.03582	353.01694	1469.054	89.442772	244.69768	1485.3667	91.150017	65.30249	1558.6882				136.94205	60.916931	1606.8773	129.95778	69.951401	1479.8416	166.06577	44.645447	1429.1573				83.971764	23.850435	1430.647	347.64105	600.91449	1523.9932	330.97568	730.90277	1518.0269	310.31772	649.03918	1475.4041	332.33521	461.17819	1537.1318				325.57065	322.5444	1665.2479	287.70624	325.23547	1589.1583	278.06793	276.94226	1656.4001	265.92746	210.74654	1864.6156				217.29239	236.37366	1878.9901	261.90994	138.72154	1805.2552	236.65468	84.150497	1794.7167				302.81689	81.565697	1833.9917
